<?xml version="1.0" standalone="no"?>
<!DOCTYPE svg PUBLIC "-//W3C//DTD SVG 20010904//EN"
 "http://www.w3.org/TR/2001/REC-SVG-20010904/DTD/svg10.dtd">
<svg version="1.0" xmlns="http://www.w3.org/2000/svg"
 width="50.000000pt" height="50.000000pt" viewBox="0 0 50.000000 50.000000"
 preserveAspectRatio="xMidYMid meet">

<g transform="translate(0.000000,50.000000) scale(0.100000,-0.100000)"
fill="#ffffff" stroke="none">
<path d="M280 406 c-63 -58 -75 -65 -118 -68 l-47 -3 0 -85 0 -85 47 -3 c43
-3 55 -10 118 -68 38 -35 77 -64 85 -64 23 0 26 31 23 240 -4 233 -3 232 -108
136z m90 -156 c0 -110 -3 -200 -6 -200 -3 0 -39 30 -80 67 l-74 68 0 65 0 65
73 67 c39 37 75 67 80 68 4 0 7 -90 7 -200z m-180 0 l0 -70 -30 0 -30 0 0 70
0 70 30 0 30 0 0 -70z"/>
</g>
</svg>
