<?xml version="1.0" standalone="no"?>
<!DOCTYPE svg PUBLIC "-//W3C//DTD SVG 20010904//EN"
 "http://www.w3.org/TR/2001/REC-SVG-20010904/DTD/svg10.dtd">
<svg version="1.0" xmlns="http://www.w3.org/2000/svg"
 width="300.000000pt" height="194.000000pt" viewBox="0 0 300.000000 194.000000"
 preserveAspectRatio="xMidYMid meet">
<metadata>
Created by potrace 1.10, written by Peter Selinger 2001-2011
</metadata>
<g transform="translate(0.000000,194.000000) scale(0.050000,-0.050000)"
fill="#000000" stroke="none">
<path d="M2489 2832 c-124 -39 -290 -137 -469 -276 -242 -189 -403 -296 -444
-296 -45 0 -49 84 -6 120 32 27 41 100 13 100 -29 0 -126 -160 -119 -196 26
-136 180 -94 451 123 91 73 165 129 165 124 0 -4 -48 -110 -108 -234 -251
-530 -352 -755 -352 -791 0 -73 56 4 134 185 48 110 99 226 115 259 16 33 88
186 160 340 72 154 138 293 148 310 9 16 83 64 165 106 254 131 398 109 329
-51 -22 -50 41 -46 68 4 85 157 -35 240 -250 173z"/>
<path d="M3373 2244 c-14 -21 -180 -88 -306 -122 -77 -21 -91 -36 -168 -177
-112 -204 -379 -545 -427 -545 -5 0 59 145 140 323 81 178 148 335 148 350 0
58 -52 23 -100 -67 -119 -224 -381 -453 -445 -389 -26 26 -14 80 64 290 49
133 40 193 -28 193 -45 0 -191 -137 -191 -180 0 -41 48 -17 111 55 92 106 99
76 30 -114 -131 -353 3 -437 275 -174 119 116 119 111 -17 -181 -86 -184 -116
-225 -294 -406 -223 -226 -256 -274 -237 -348 34 -137 143 -48 326 266 76 131
162 243 271 352 212 212 475 571 475 647 0 12 52 37 115 55 63 18 126 42 140
53 37 29 31 11 -35 -115 -149 -283 69 -427 343 -227 26 19 39 17 66 -9 72 -72
235 -68 337 7 l57 43 45 -42 c81 -76 343 -8 476 123 100 98 23 95 -120 -5
-136 -94 -259 -122 -312 -70 -32 33 -32 36 5 62 104 73 197 296 133 321 -72
27 -230 -183 -230 -305 0 -57 -190 -136 -276 -115 -108 25 -112 47 -28 135
155 163 192 272 93 272 -109 0 -208 -117 -228 -269 -12 -92 -130 -171 -253
-171 -164 0 -138 135 82 432 13 18 12 34 -3 49 -14 14 -27 15 -34 3z m427 -95
c0 -25 -49 -102 -103 -165 -80 -92 -78 -19 3 93 53 72 100 106 100 72z m420
-19 c0 -27 -109 -172 -115 -154 -8 24 77 163 100 164 8 0 15 -5 15 -10z
m-2065 -1184 c-93 -144 -147 -201 -170 -178 -18 19 26 86 144 219 128 144 137
130 26 -41z"/>
</g>
</svg>
